HIERARCHY
ROOT Hips
{
	OFFSET 0.000000 0.000000 0.000000
	CHANNELS 6 Xposition Yposition Zposition Xrotation Yrotation Zrotation
	JOINT LeftUpLeg_virtual
	{
		OFFSET 0.000000 0.000000 0.000000
		CHANNELS 3 Xrotation Yrotation Zrotation
		JOINT LeftUpLeg
		{
			OFFSET 15.427100 -6.655098 0.678600
			CHANNELS 3 Xrotation Yrotation Zrotation
			JOINT LeftLeg
			{
				OFFSET 4.081073 -39.591068 13.024000
				CHANNELS 3 Xrotation Yrotation Zrotation
				JOINT LeftFoot
				{
					OFFSET -4.081074 -37.707932 -15.979700
					CHANNELS 3 Xrotation Yrotation Zrotation
					JOINT LeftToeBase
					{
						OFFSET 5.346399 -15.068900 20.645000
						CHANNELS 3 Xrotation Yrotation Zrotation
						JOINT LeftToe_End
						{
							OFFSET 2.754700 0.931300 11.300900
							CHANNELS 3 Xrotation Yrotation Zrotation
							End Site
							{
								OFFSET 0 0 0
							}
						}
					}
				}
			}
		}
	}
	JOINT RightUpLeg_virtual
	{
		OFFSET 0.000000 0.000000 0.000000
		CHANNELS 3 Xrotation Yrotation Zrotation
		JOINT RightUpLeg
		{
			OFFSET -15.569500 -6.655098 0.678600
			CHANNELS 3 Xrotation Yrotation Zrotation
			JOINT RightLeg
			{
				OFFSET -4.081825 -39.591045 13.023800
				CHANNELS 3 Xrotation Yrotation Zrotation
				JOINT RightFoot
				{
					OFFSET 4.081824 -37.707954 -15.979600
					CHANNELS 3 Xrotation Yrotation Zrotation
					JOINT RightToeBase
					{
						OFFSET -5.346400 -15.068900 20.645000
						CHANNELS 3 Xrotation Yrotation Zrotation
						JOINT RightToe_End
						{
							OFFSET -2.754700 0.931300 11.300900
							CHANNELS 3 Xrotation Yrotation Zrotation
							End Site
							{
								OFFSET 0 0 0
							}
						}
					}
				}
			}
		}
	}
	JOINT Spine_virtual
	{
		OFFSET 0.000000 0.000000 0.000000
		CHANNELS 3 Xrotation Yrotation Zrotation
		JOINT Spine
		{
			OFFSET -0.279200 12.230698 -2.892100
			CHANNELS 3 Xrotation Yrotation Zrotation
			JOINT Spine1
			{
				OFFSET -0.232667 10.192268 -1.242267
				CHANNELS 3 Xrotation Yrotation Zrotation
				JOINT Spine1_split
				{
					OFFSET -0.232667 10.192268 -1.242267
					CHANNELS 3 Xrotation Yrotation Zrotation
					JOINT Spine2
					{
						OFFSET -0.232667 10.192268 -1.242267
						CHANNELS 3 Xrotation Yrotation Zrotation
						JOINT Neck_virtual
						{
							OFFSET 0.000000 0.000000 0.000000
							CHANNELS 3 Xrotation Yrotation Zrotation
							JOINT Neck
							{
								OFFSET -0.418800 17.814194 8.416900
								CHANNELS 3 Xrotation Yrotation Zrotation
								JOINT Head
								{
									OFFSET 0.000000 7.031097 3.806800
									CHANNELS 3 Xrotation Yrotation Zrotation
									JOINT HeadTop_End
									{
										OFFSET 0.000000 24.646606 12.978600
										CHANNELS 3 Xrotation Yrotation Zrotation
										End Site
										{
											OFFSET 0 0 0
										}
									}
								}
							}
						}
						JOINT LeftShoulder_virtual
						{
							OFFSET 0.000000 0.000000 0.000000
							CHANNELS 3 Xrotation Yrotation Zrotation
							JOINT LeftShoulder
							{
								OFFSET 8.476499 7.247704 -3.868750
								CHANNELS 3 Xrotation Yrotation Zrotation
								JOINT LeftShoulder_split
								{
									OFFSET 8.476499 7.247704 -3.868750
									CHANNELS 3 Xrotation Yrotation Zrotation
									JOINT LeftArm
									{
										OFFSET 9.308998 -2.777710 0.208600
										CHANNELS 3 Xrotation Yrotation Zrotation
										JOINT LeftForeArm
										{
											OFFSET 29.972298 0.000000 0.000000
											CHANNELS 3 Xrotation Yrotation Zrotation
											JOINT LeftHand
											{
												OFFSET 26.026505 0.000000 0.000000
												CHANNELS 3 Xrotation Yrotation Zrotation
												End Site
												{
													OFFSET 0 0 0
												}
											}
										}
									}
								}
							}
						}
						JOINT RightShoulder_virtual
						{
							OFFSET 0.000000 0.000000 0.000000
							CHANNELS 3 Xrotation Yrotation Zrotation
							JOINT RightShoulder
							{
								OFFSET -7.570500 7.247704 -3.868750
								CHANNELS 3 Xrotation Yrotation Zrotation
								JOINT RightShoulder_split
								{
									OFFSET -7.570500 7.247704 -3.868750
									CHANNELS 3 Xrotation Yrotation Zrotation
									JOINT RightArm
									{
										OFFSET -9.308998 -2.777710 0.208500
										CHANNELS 3 Xrotation Yrotation Zrotation
										JOINT RightForeArm
										{
											OFFSET -29.972300 0.000000 0.000000
											CHANNELS 3 Xrotation Yrotation Zrotation
											JOINT RightHand
											{
												OFFSET -26.026505 0.000000 0.000000
												CHANNELS 3 Xrotation Yrotation Zrotation
												End Site
												{
													OFFSET 0 0 0
												}
											}
										}
									}
								}
							}
						}
					}
				}
			}
		}
	}
}
MOTION
Frames: 9
Frame Time: 0.03333333
0.461919 97.590202 -1.060207 0.000000 0.000000 0.000000 -4.056296 6.159632 -1.740128 -2.207206 11.089332 10.021183 9.620490 -6.509546 0.257780 -4.551545 0.531581 -6.417290 -0.000190 -0.000000 0.000010 0.000000 0.000000 0.000000 -4.056296 6.159632 -1.740128 -0.557956 -5.933308 1.778731 8.267566 3.359389 -0.592440 -3.466222 0.097554 0.300198 -0.001321 0.000002 0.000001 0.000000 0.000000 0.000000 -4.056296 6.159632 -1.740128 4.903260 -0.348323 1.196686 5.814413 -0.121247 1.891503 0.000000 0.000000 0.000000 0.000000 0.000000 0.000000 -4.300227 -0.608021 -1.115062 1.348862 -1.122448 0.966616 4.180612 -0.441330 -1.260350 0.000000 0.000000 0.000000 -4.300227 -0.608021 -1.115062 1.687379 -7.781274 -3.495009 0.000000 0.000000 0.000000 -0.671929 -2.004020 -76.954211 6.346055 -10.905883 1.751775 0.000000 0.000000 0.000000 -4.300227 -0.608021 -1.115062 2.088908 10.213786 4.097141 0.000000 0.000000 0.000000 1.436097 3.709010 75.271786 15.720256 15.338544 -4.555603 0.000000 0.000000 0.000000 
0.462337 97.512321 -0.991566 0.000000 0.000000 0.000000 -3.951665 5.761193 -1.784773 -2.245426 11.205405 10.148027 9.817209 -6.284584 0.195796 -4.799518 0.567190 -6.465724 -0.090334 -0.067602 0.066302 0.000000 0.000000 0.000000 -3.951665 5.761193 -1.784773 -0.876800 -5.962878 1.817883 8.545467 3.813082 -0.506502 -3.493439 0.141219 0.126875 -0.062531 -0.102870 0.024831 0.000000 0.000000 0.000000 -3.951665 5.761193 -1.784773 5.415608 -0.327668 1.163174 5.522215 -0.132479 1.904806 0.000000 0.000000 0.000000 0.000000 0.000000 0.000000 -4.333486 -0.594681 -1.023816 1.247722 -1.042279 0.952613 3.900950 -0.349568 -1.362773 0.000000 0.000000 0.000000 -4.333486 -0.594681 -1.023816 1.620308 -7.552168 -3.860861 0.000000 0.000000 0.000000 -0.751192 -2.300622 -76.607142 6.273863 -11.004188 1.438897 0.000000 0.000000 0.000000 -4.333486 -0.594681 -1.023816 1.990164 10.065647 4.383186 0.000000 0.000000 0.000000 2.016828 4.166796 74.641940 15.644915 15.971445 -4.499049 0.000000 0.000000 0.000000 
0.425264 97.387695 -0.905594 0.000000 0.000000 0.000000 -3.787456 5.345354 -1.869841 -2.414706 11.254778 10.341451 10.186591 -5.994880 0.183215 -5.143868 0.620173 -6.583684 -0.157208 -0.241756 0.114430 0.000000 0.000000 0.000000 -3.787456 5.345354 -1.869841 -1.299158 -5.932616 1.875213 8.965923 4.086421 -0.373886 -3.588528 0.174186 -0.076560 -0.078997 0.009558 0.002495 0.000000 0.000000 0.000000 -3.787456 5.345354 -1.869841 5.962088 -0.338889 1.173602 5.138955 -0.169620 1.922761 0.000000 0.000000 0.000000 0.000000 0.000000 0.000000 -4.445559 -0.615046 -0.923940 1.407159 -0.904689 0.903998 3.319786 -0.214768 -1.409141 0.000000 0.000000 0.000000 -4.445559 -0.615046 -0.923940 1.548017 -7.340915 -4.191911 0.000000 0.000000 0.000000 -0.740684 -2.457495 -76.268638 6.412170 -11.186915 1.166549 0.000000 0.000000 0.000000 -4.445559 -0.615046 -0.923940 1.962681 9.891855 4.427145 0.000000 0.000000 0.000000 2.263375 4.863580 74.267884 15.700834 15.892042 -4.313922 0.000000 0.000000 0.000000 
0.365010 97.244957 -0.798988 0.000000 0.000000 0.000000 -3.656628 4.834993 -1.919498 -2.497042 11.313821 10.520670 10.559345 -5.621414 0.187243 -5.526803 0.690404 -6.756760 -0.275440 0.013319 0.199206 0.000000 0.000000 0.000000 -3.656628 4.834993 -1.919498 -1.763023 -5.878950 1.948574 9.505582 4.465158 -0.270884 -3.729743 0.220998 -0.361214 -0.068967 0.065299 0.047849 0.000000 0.000000 0.000000 -3.656628 4.834993 -1.919498 6.553269 -0.336821 1.140156 4.747527 -0.211358 1.960678 0.000000 0.000000 0.000000 0.000000 0.000000 0.000000 -4.554508 -0.640237 -0.800481 1.568875 -0.722362 0.895328 2.918211 -0.025750 -1.532828 0.000000 0.000000 0.000000 -4.554508 -0.640237 -0.800481 1.469709 -7.170368 -4.588168 0.000000 0.000000 0.000000 -0.740861 -2.579955 -75.869031 6.765165 -11.226866 0.911233 0.000000 0.000000 0.000000 -4.554508 -0.640237 -0.800481 1.897158 9.753001 4.574659 0.000000 0.000000 0.000000 2.761360 5.469279 73.688172 15.327284 16.216713 -4.177223 0.000000 0.000000 0.000000 
0.255015 97.103554 -0.656757 0.000000 0.000000 0.000000 -3.472019 4.308311 -1.944905 -2.590912 11.426937 10.716388 10.870711 -5.285558 0.163497 -5.893077 0.762797 -6.952272 -0.356462 0.020489 0.257821 0.000000 0.000000 0.000000 -3.472019 4.308311 -1.944905 -2.268948 -5.756503 2.054589 10.070480 4.764667 -0.215898 -3.917797 0.267676 -0.665879 -0.030618 0.128315 0.110496 0.000000 0.000000 0.000000 -3.472019 4.308311 -1.944905 6.991587 -0.368864 1.074624 4.482987 -0.270836 1.988609 0.000000 0.000000 0.000000 0.000000 0.000000 0.000000 -4.526552 -0.681911 -0.685798 1.377391 -0.542953 1.012011 2.800686 0.189263 -1.797489 0.000000 0.000000 0.000000 -4.526552 -0.681911 -0.685798 1.399209 -7.017515 -4.892699 0.000000 0.000000 0.000000 -0.714867 -2.913300 -75.547056 6.798837 -11.543320 0.677531 0.000000 0.000000 0.000000 -4.526552 -0.681911 -0.685798 1.805812 9.500913 4.901583 0.000000 0.000000 0.000000 3.450765 6.546487 72.839958 15.124600 16.856106 -4.265065 0.000000 0.000000 0.000000 
0.088697 96.976509 -0.477085 0.000000 0.000000 0.000000 -3.251427 3.672745 -2.001846 -2.640175 11.548320 10.974273 11.121629 -4.874208 0.163795 -6.272552 0.853843 -7.235786 -0.431436 0.031870 0.311637 0.000000 0.000000 0.000000 -3.251427 3.672745 -2.001846 -2.763733 -5.666516 2.237761 10.536923 5.216523 -0.101729 -4.044155 0.336928 -1.071246 -0.021935 0.114458 0.158238 0.000000 0.000000 0.000000 -3.251427 3.672745 -2.001846 7.368137 -0.448472 1.076693 4.195671 -0.356207 1.967418 0.000000 0.000000 0.000000 0.000000 0.000000 0.000000 -4.512925 -0.746791 -0.618005 1.450878 -0.321877 1.209873 2.507558 0.533925 -2.032754 0.000000 0.000000 0.000000 -4.512925 -0.746791 -0.618005 1.330237 -7.014775 -5.058158 0.000000 0.000000 0.000000 -0.717621 -2.720701 -75.275214 7.074264 -11.605010 0.452589 0.000000 0.000000 0.000000 -4.512925 -0.746791 -0.618005 1.705159 9.372394 5.363777 0.000000 0.000000 0.000000 4.228291 7.755411 71.923347 14.944782 17.453720 -4.429932 0.000000 0.000000 0.000000 
-0.159304 96.873245 -0.243038 0.000000 0.000000 0.000000 -3.010885 2.897547 -2.038417 -2.544438 11.675274 11.255093 11.220804 -4.322388 0.186288 -6.635791 0.973271 -7.645809 -0.439414 0.128422 0.318079 0.000000 0.000000 0.000000 -3.010885 2.897547 -2.038417 -3.224989 -5.481337 2.516463 10.945007 5.629091 -0.079015 -4.183629 0.412326 -1.499909 0.017930 0.235031 0.218758 0.000000 0.000000 0.000000 -3.010885 2.897547 -2.038417 7.743432 -0.538092 0.986893 3.840519 -0.467055 2.011603 0.000000 0.000000 0.000000 0.000000 0.000000 0.000000 -4.557647 -0.839309 -0.482462 1.620484 -0.028265 1.371201 2.167858 0.870248 -2.382474 0.000000 0.000000 0.000000 -4.557647 -0.839309 -0.482462 1.271122 -6.964118 -5.284756 0.000000 0.000000 0.000000 -0.540964 -2.575037 -74.951381 7.304061 -11.784214 0.216723 0.000000 0.000000 0.000000 -4.557647 -0.839309 -0.482462 1.626678 9.215360 5.694087 0.000000 0.000000 0.000000 4.843425 8.614489 71.217699 14.997688 17.930655 -4.591859 0.000000 0.000000 0.000000 
-0.473976 96.785759 0.031803 0.000000 0.000000 0.000000 -2.702279 1.989919 -2.061614 -2.367605 11.756603 11.545842 11.214026 -3.565677 0.247742 -6.995239 1.125527 -8.188662 -0.415926 0.094494 0.300846 0.000000 0.000000 0.000000 -2.702279 1.989919 -2.061614 -3.712118 -5.243487 2.859178 11.283729 6.132304 -0.067642 -4.306848 0.504366 -1.979460 0.079598 0.280834 0.267686 0.000000 0.000000 0.000000 -2.702279 1.989919 -2.061614 7.963554 -0.650894 0.881545 3.511774 -0.597220 2.053654 0.000000 0.000000 0.000000 0.000000 0.000000 0.000000 -4.568455 -0.951494 -0.347463 1.773353 0.289878 1.443775 1.885779 1.220138 -2.366383 0.000000 0.000000 0.000000 -4.568455 -0.951494 -0.347463 1.201297 -6.798045 -5.580293 0.000000 0.000000 0.000000 -0.408215 -2.466893 -74.503089 7.430859 -11.694289 -0.124055 0.000000 0.000000 0.000000 -4.568455 -0.951494 -0.347463 1.561661 9.046405 6.006819 0.000000 0.000000 0.000000 5.553023 10.016658 70.513179 14.717355 18.274156 -4.669084 0.000000 0.000000 0.000000 
-0.868415 96.691551 0.363091 0.000000 0.000000 0.000000 -2.516631 0.773987 -2.071388 -1.848360 11.840451 11.863846 11.119164 -2.550028 0.355286 -7.420635 1.333567 -8.907959 -0.427465 0.220365 0.310129 0.000000 0.000000 0.000000 -2.516631 0.773987 -2.071388 -4.097423 -4.995874 3.285912 11.623372 6.921218 -0.045177 -4.369388 0.625972 -2.531982 0.084331 0.275821 0.259345 0.000000 0.000000 0.000000 -2.516631 0.773987 -2.071388 8.211469 -0.722937 0.708647 3.193795 -0.713226 2.160274 0.000000 0.000000 0.000000 0.000000 0.000000 0.000000 -4.561475 -1.049622 -0.144471 2.007926 0.716273 1.325067 1.520206 1.623137 -2.262071 0.000000 0.000000 0.000000 -4.561475 -1.049622 -0.144471 1.129406 -6.435703 -6.041999 0.000000 0.000000 0.000000 -0.121721 -2.136054 -74.015215 7.915113 -11.987324 -0.288432 0.000000 0.000000 0.000000 -4.561475 -1.049622 -0.144471 1.498374 8.841924 6.211504 0.000000 0.000000 0.000000 5.833125 10.524245 69.930263 14.372817 18.369232 -4.384861 0.000000 0.000000 0.000000 
